<svg width="46" height="44" viewBox="0 0 46 44" fill="none" xmlns="http://www.w3.org/2000/svg">
<g id="download">
<g id="Group">
<path id="Vector" d="M43.3166 1.3125L26.0547 14.0851L29.2647 6.5578L43.3166 1.3125Z" fill="#E17726" stroke="#E17726" stroke-width="0.25" stroke-linecap="round" stroke-linejoin="round"/>
<g id="Group_2">
<path id="Vector_2" d="M3.5 1.3125L20.6082 14.2043L17.552 6.55779L3.5 1.3125Z" fill="#E27625" stroke="#E27625" stroke-width="0.25" stroke-linecap="round" stroke-linejoin="round"/>
<path id="Vector_3" d="M37.1028 30.9297L32.5098 37.9461L42.3444 40.654L45.1617 31.0829L37.1028 30.9297Z" fill="#E27625" stroke="#E27625" stroke-width="0.25" stroke-linecap="round" stroke-linejoin="round"/>
<path id="Vector_4" d="M1.67383 31.0829L4.47398 40.654L14.2916 37.9461L9.71572 30.9297L1.67383 31.0829Z" fill="#E27625" stroke="#E27625" stroke-width="0.25" stroke-linecap="round" stroke-linejoin="round"/>
<path id="Vector_5" d="M13.7631 19.0735L11.0312 23.1948L20.7635 23.6376L20.439 13.1641L13.7631 19.0735Z" fill="#E27625" stroke="#E27625" stroke-width="0.25" stroke-linecap="round" stroke-linejoin="round"/>
<path id="Vector_6" d="M33.055 19.0756L26.2765 13.0469L26.0547 23.6397L35.7868 23.1969L33.055 19.0756Z" fill="#E27625" stroke="#E27625" stroke-width="0.25" stroke-linecap="round" stroke-linejoin="round"/>
<path id="Vector_7" d="M14.291 37.9434L20.1815 35.0994L15.1106 31.1484L14.291 37.9434Z" fill="#E27625" stroke="#E27625" stroke-width="0.25" stroke-linecap="round" stroke-linejoin="round"/>
<path id="Vector_8" d="M26.6367 35.0994L32.5101 37.9434L31.7078 31.1484L26.6367 35.0994Z" fill="#E27625" stroke="#E27625" stroke-width="0.25" stroke-linecap="round" stroke-linejoin="round"/>
</g>
<path id="Vector_9" d="M32.5083 37.9455L26.6348 35.1016L27.1129 38.9163L27.0616 40.5342L32.5083 37.9455Z" fill="#D5BFB2" stroke="#D5BFB2" stroke-width="0.25" stroke-linecap="round" stroke-linejoin="round"/>
<path id="Vector_10" d="M14.291 37.9455L19.7548 40.5342L19.7206 38.9163L20.1816 35.1016L14.291 37.9455Z" fill="#D5BFB2" stroke="#D5BFB2" stroke-width="0.25" stroke-linecap="round" stroke-linejoin="round"/>
<path id="Vector_11" d="M19.8578 28.6276L14.9746 27.1971L18.4237 25.6133L19.8578 28.6276Z" fill="#233447" stroke="#233447" stroke-width="0.25" stroke-linecap="round" stroke-linejoin="round"/>
<path id="Vector_12" d="M26.959 28.6276L28.3933 25.6133L31.8593 27.1971L26.959 28.6276Z" fill="#233447" stroke="#233447" stroke-width="0.25" stroke-linecap="round" stroke-linejoin="round"/>
<path id="Vector_13" d="M14.2908 37.9461L15.1444 30.9297L9.71484 31.0831L14.2908 37.9461Z" fill="#CC6228" stroke="#CC6228" stroke-width="0.25" stroke-linecap="round" stroke-linejoin="round"/>
<path id="Vector_14" d="M31.6719 30.9297L32.5085 37.9461L37.1015 31.0831L31.6719 30.9297Z" fill="#CC6228" stroke="#CC6228" stroke-width="0.25" stroke-linecap="round" stroke-linejoin="round"/>
<path id="Vector_15" d="M35.787 23.1953L26.0547 23.6381L26.9596 28.6279L28.3939 25.6136L31.8599 27.1974L35.787 23.1953Z" fill="#CC6228" stroke="#CC6228" stroke-width="0.25" stroke-linecap="round" stroke-linejoin="round"/>
<path id="Vector_16" d="M14.9734 27.1974L18.4224 25.6136L19.8566 28.6279L20.7615 23.6381L11.0293 23.1953L14.9734 27.1974Z" fill="#CC6228" stroke="#CC6228" stroke-width="0.25" stroke-linecap="round" stroke-linejoin="round"/>
<path id="Vector_17" d="M11.0293 23.1953L15.11 31.1484L14.9735 27.1974L11.0293 23.1953Z" fill="#E27525" stroke="#E27525" stroke-width="0.25" stroke-linecap="round" stroke-linejoin="round"/>
<path id="Vector_18" d="M31.8607 27.1974L31.707 31.1484L35.7878 23.1953L31.8607 27.1974Z" fill="#E27525" stroke="#E27525" stroke-width="0.25" stroke-linecap="round" stroke-linejoin="round"/>
<path id="Vector_19" d="M20.7624 23.6406L19.8574 28.6306L21.0014 34.5229L21.2575 26.7572L20.7624 23.6406Z" fill="#E27525" stroke="#E27525" stroke-width="0.25" stroke-linecap="round" stroke-linejoin="round"/>
<path id="Vector_20" d="M26.0543 23.6406L25.5762 26.7402L25.8152 34.5229L26.9592 28.6306L26.0543 23.6406Z" fill="#E27525" stroke="#E27525" stroke-width="0.25" stroke-linecap="round" stroke-linejoin="round"/>
<path id="Vector_21" d="M26.9604 28.6297L25.8164 34.5222L26.636 35.1012L31.707 31.1502L31.8607 27.1992L26.9604 28.6297Z" fill="#F5841F" stroke="#F5841F" stroke-width="0.25" stroke-linecap="round" stroke-linejoin="round"/>
<path id="Vector_22" d="M14.9746 27.1992L15.1113 31.1502L20.1822 35.1012L21.0018 34.5222L19.8578 28.6297L14.9746 27.1992Z" fill="#F5841F" stroke="#F5841F" stroke-width="0.25" stroke-linecap="round" stroke-linejoin="round"/>
<path id="Vector_23" d="M27.0625 40.5339L27.1137 38.916L26.6697 38.5413H20.1475L19.7206 38.916L19.7548 40.5339L14.291 37.9453L16.2034 39.5121L20.0791 42.1859H26.721L30.6139 39.5121L32.5091 37.9453L27.0625 40.5339Z" fill="#C0AC9D" stroke="#C0AC9D" stroke-width="0.25" stroke-linecap="round" stroke-linejoin="round"/>
<path id="Vector_24" d="M26.6358 35.0986L25.8162 34.5195H21.0013L20.1818 35.0986L19.7207 38.9133L20.1476 38.5386H26.6699L27.1138 38.9133L26.6358 35.0986Z" fill="#161616" stroke="#161616" stroke-width="0.25" stroke-linecap="round" stroke-linejoin="round"/>
<path id="Vector_25" d="M44.0502 14.9196L45.5016 7.86912L43.3161 1.3125L26.6348 13.6594L33.0545 19.0749L42.1209 21.7147L44.1186 19.3816L43.2477 18.7514L44.6308 17.4912L43.5722 16.6737L44.9552 15.6178L44.0502 14.9196Z" fill="#763E1A" stroke="#763E1A" stroke-width="0.25" stroke-linecap="round" stroke-linejoin="round"/>
<path id="Vector_26" d="M1.31445 7.86912L2.78283 14.9196L1.84376 15.6178L3.24382 16.6737L2.18523 17.4912L3.56823 18.7514L2.69745 19.3816L4.69512 21.7147L13.7615 19.0749L20.1813 13.6594L3.49994 1.3125L1.31445 7.86912Z" fill="#763E1A" stroke="#763E1A" stroke-width="0.25" stroke-linecap="round" stroke-linejoin="round"/>
<path id="Vector_27" d="M42.1222 21.714L33.0559 19.0742L35.7878 23.1956L31.707 31.1487L37.1024 31.0805H45.1614L42.1222 21.714Z" fill="#F5841F" stroke="#F5841F" stroke-width="0.25" stroke-linecap="round" stroke-linejoin="round"/>
<path id="Vector_28" d="M13.7623 19.0742L4.69595 21.714L1.67383 31.0805H9.71572L15.1111 31.1487L11.0304 23.1956L13.7623 19.0742Z" fill="#F5841F" stroke="#F5841F" stroke-width="0.25" stroke-linecap="round" stroke-linejoin="round"/>
<path id="Vector_29" d="M26.0555 23.6398L26.636 13.6602L29.2655 6.55859H17.5527L20.1821 13.6602L20.7626 23.6398L20.9846 26.7734L21.0017 34.5221H25.8166L25.8337 26.7734L26.0555 23.6398Z" fill="#F5841F" stroke="#F5841F" stroke-width="0.25" stroke-linecap="round" stroke-linejoin="round"/>
</g>
</g>
</svg>
