<svg width="59" height="59" viewBox="0 0 59 59" fill="none" xmlns="http://www.w3.org/2000/svg">
<g id="fluent-emoji-high-contrast:parrot" clip-path="url(#clip0_58_5)">
<g id="Group">
<g id="Clip path group">
<mask id="mask0_58_5" style="mask-type:luminance" maskUnits="userSpaceOnUse" x="0" y="0" width="59" height="59">
<g id="fluentEmojiHighContrastParrot0">
<path id="Vector" d="M0 0H59V59H0V0Z" fill="white"/>
</g>
</mask>
<g mask="url(#mask0_58_5)">
<g id="Group_2">
<path id="Vector_2" d="M20.8012 13.9461C21.4281 13.9461 22.0293 13.6971 22.4726 13.2538C22.9158 12.8105 23.1649 12.2093 23.1649 11.5824C23.1649 10.9555 22.9158 10.3543 22.4726 9.91106C22.0293 9.46778 21.4281 9.21875 20.8012 9.21875C20.1743 9.21875 19.5731 9.46778 19.1298 9.91106C18.6865 10.3543 18.4375 10.9555 18.4375 11.5824C18.4375 12.2093 18.6865 12.8105 19.1298 13.2538C19.5731 13.6971 20.1743 13.9461 20.8012 13.9461Z" fill="black"/>
<path id="Vector_3" d="M6.49922 20.7487C5.58474 19.918 4.87327 18.8883 4.41966 17.7391C3.96605 16.5899 3.78243 15.3518 3.88294 14.1204L3.88478 14.102C4.01446 12.6013 4.55839 11.166 5.45592 9.95631C6.35346 8.74657 7.56933 7.80988 8.968 7.25064C10.0259 5.15686 11.6227 3.38284 13.594 2.1112C15.5653 0.839568 17.8398 0.116268 20.1835 0.0157618C26.9593 -0.310582 32.7026 4.46842 33.8937 10.8478L39.0912 36.1865L49.9546 35.1503L49.9804 35.1484C52.7202 34.9272 55.2627 37.0696 55.2203 40.0196V44.0224C55.2203 49.2218 51.0147 53.4624 45.7803 53.4624H31.27V54.3843H33.5747C34.3306 54.3843 34.9575 55.0111 34.9575 55.7671C34.9575 56.523 34.3306 57.1499 33.5747 57.1499H16.0591C15.6923 57.1499 15.3406 57.0042 15.0813 56.7449C14.8219 56.4855 14.6763 56.1338 14.6763 55.7671C14.6763 55.4003 14.8219 55.0486 15.0813 54.7893C15.3406 54.5299 15.6923 54.3843 16.0591 54.3843H21.1294L21.5184 52.9978C11.3796 50.918 3.6875 42.1123 3.6875 31.4296C3.6875 27.6001 4.70525 23.9403 6.49922 20.7487ZM12.0176 17.9499C12.0083 18.8109 11.7226 19.6572 11.1731 20.3486C10.7254 20.9294 10.3128 21.5364 9.93781 22.1666C8.26441 24.9669 7.37892 28.1674 7.375 31.4296C7.375 41.5702 15.7641 49.7749 26.1259 49.7749H45.7803C48.97 49.7749 51.5328 47.1936 51.5328 44.0224V39.9846C51.5353 39.8234 51.5038 39.6635 51.4405 39.5152C51.3771 39.367 51.2832 39.2338 51.1649 39.1242C51.0467 39.0147 50.9067 38.9312 50.7541 38.8793C50.6014 38.8274 50.4396 38.8082 50.2791 38.823L38.0107 39.9938L38.2173 40.9968L39.2553 46.0487C39.2866 46.2035 39.3014 46.3584 39.3014 46.5115C39.3028 46.804 39.2464 47.0939 39.1354 47.3645C39.0243 47.6351 38.8609 47.8811 38.6544 48.0883C38.4479 48.2955 38.2024 48.4598 37.9322 48.5717C37.6619 48.6837 37.3722 48.741 37.0797 48.7405H37.0188L36.958 48.7313C26.5684 47.3448 18.55 38.4414 18.55 27.6665V27.648C18.55 26.9198 18.5868 26.1915 18.6643 25.4614C18.6864 25.1848 18.7288 24.8861 18.7933 24.6022H18.8026C19.1913 22.7618 20.2009 21.1111 21.6622 19.9268C23.1234 18.7425 24.9475 18.0966 26.8284 18.0974C28.7066 18.0946 30.5289 18.7363 31.9909 19.9154L30.2744 11.5539C29.8518 9.26588 28.6135 7.20879 26.7894 5.76439C24.9652 4.31998 22.679 3.58634 20.355 3.69957C18.4364 3.7798 16.5868 4.4383 15.0492 5.58864C13.5116 6.73898 12.3577 8.32738 11.7392 10.1453C14.1784 10.0716 16.4407 11.388 17.1118 13.4585C17.2267 13.7894 17.2853 14.1371 17.2852 14.4874C17.2852 16.6335 15.2275 18.0734 13.1091 18.0734C12.7348 18.0734 12.3679 18.031 12.0176 17.9499ZM20.6334 24.8584C21.2701 28.8221 23.1194 32.4911 25.9268 35.3607C28.7343 38.2302 32.362 40.1593 36.3108 40.8825L36.1744 40.2132V40.3183L32.922 24.4639C32.5294 23.154 31.724 22.006 30.6259 21.191C29.5279 20.376 28.1959 19.9376 26.8284 19.9412C23.8342 19.9412 21.2972 22.0062 20.6334 24.8584ZM28.5044 54.3843V53.4624H26.1259C25.4696 53.4624 24.8187 53.4347 24.1771 53.3813L23.895 54.3843H28.5044ZM15.3584 14.0319C15.0044 12.922 13.6235 11.9264 11.776 11.9872C9.90647 12.0518 8.60294 13.2557 8.47572 14.4726C8.40197 15.2507 8.76703 16.0269 9.49531 16.58C9.55063 16.2057 9.72209 15.8683 9.96547 15.6028L10.6016 14.9059L11.2837 15.5567C11.6949 15.9494 12.3439 16.2297 13.1091 16.2297C14.5748 16.2297 15.4414 15.2857 15.4414 14.4874C15.4414 14.341 15.4164 14.1957 15.3677 14.0578L15.3621 14.0449L15.3584 14.0319Z" fill="black"/>
</g>
</g>
</g>
</g>
</g>
<defs>
<clipPath id="clip0_58_5">
<rect width="59" height="59" fill="white"/>
</clipPath>
</defs>
</svg>
