<svg width="84" height="84" viewBox="0 0 84 84" fill="none" xmlns="http://www.w3.org/2000/svg">
<rect width="84" height="84" rx="42" fill="white"/>
<g clip-path="url(#clip0_58_4)">
<mask id="mask0_58_4" style="mask-type:luminance" maskUnits="userSpaceOnUse" x="12" y="19" width="59" height="59">
<path d="M12 19H71V78H12V19Z" fill="white"/>
</mask>
<g mask="url(#mask0_58_4)">
<path d="M32.8012 32.9461C33.4281 32.9461 34.0293 32.6971 34.4726 32.2538C34.9158 31.8105 35.1649 31.2093 35.1649 30.5824C35.1649 29.9555 34.9158 29.3543 34.4726 28.9111C34.0293 28.4678 33.4281 28.2188 32.8012 28.2188C32.1743 28.2188 31.5731 28.4678 31.1298 28.9111C30.6865 29.3543 30.4375 29.9555 30.4375 30.5824C30.4375 31.2093 30.6865 31.8105 31.1298 32.2538C31.5731 32.6971 32.1743 32.9461 32.8012 32.9461Z" fill="black"/>
<path d="M18.4992 39.7487C17.5847 38.918 16.8733 37.8883 16.4197 36.7391C15.9661 35.5899 15.7824 34.3518 15.8829 33.1204L15.8848 33.102C16.0145 31.6013 16.5584 30.166 17.4559 28.9563C18.3535 27.7466 19.5693 26.8099 20.968 26.2506C22.0259 24.1569 23.6227 22.3828 25.594 21.1112C27.5653 19.8396 29.8398 19.1163 32.1835 19.0158C38.9593 18.6894 44.7026 23.4684 45.8937 29.8478L51.0912 55.1865L61.9546 54.1503L61.9804 54.1484C64.7202 53.9272 67.2627 56.0696 67.2203 59.0196V63.0224C67.2203 68.2218 63.0147 72.4624 57.7803 72.4624H43.27V73.3843H45.5747C46.3306 73.3843 46.9575 74.0111 46.9575 74.7671C46.9575 75.523 46.3306 76.1499 45.5747 76.1499H28.0591C27.6923 76.1499 27.3406 76.0042 27.0813 75.7449C26.8219 75.4855 26.6763 75.1338 26.6763 74.7671C26.6763 74.4003 26.8219 74.0486 27.0813 73.7893C27.3406 73.5299 27.6923 73.3843 28.0591 73.3843H33.1294L33.5184 71.9978C23.3796 69.918 15.6875 61.1123 15.6875 50.4296C15.6875 46.6001 16.7053 42.9403 18.4992 39.7487ZM24.0176 36.9499C24.0083 37.8109 23.7226 38.6572 23.1731 39.3486C22.7254 39.9294 22.3128 40.5364 21.9378 41.1666C20.2644 43.9669 19.3789 47.1674 19.375 50.4296C19.375 60.5702 27.7641 68.7749 38.1259 68.7749H57.7803C60.97 68.7749 63.5328 66.1936 63.5328 63.0224V58.9846C63.5353 58.8234 63.5038 58.6635 63.4405 58.5152C63.3771 58.367 63.2832 58.2338 63.1649 58.1242C63.0467 58.0147 62.9067 57.9312 62.7541 57.8793C62.6014 57.8274 62.4396 57.8082 62.2791 57.823L50.0107 58.9938L50.2173 59.9968L51.2553 65.0487C51.2866 65.2035 51.3014 65.3584 51.3014 65.5115C51.3028 65.804 51.2464 66.0939 51.1354 66.3645C51.0243 66.6351 50.8609 66.8811 50.6544 67.0883C50.4479 67.2955 50.2024 67.4598 49.9322 67.5717C49.6619 67.6837 49.3722 67.741 49.0797 67.7405H49.0188L48.958 67.7313C38.5684 66.3448 30.55 57.4414 30.55 46.6665V46.648C30.55 45.9198 30.5868 45.1915 30.6643 44.4614C30.6864 44.1848 30.7288 43.8861 30.7933 43.6022H30.8026C31.1913 41.7618 32.2009 40.1111 33.6622 38.9268C35.1234 37.7425 36.9475 37.0966 38.8284 37.0974C40.7066 37.0946 42.5289 37.7363 43.9909 38.9154L42.2744 30.5539C41.8518 28.2659 40.6135 26.2088 38.7894 24.7644C36.9652 23.32 34.679 22.5863 32.355 22.6996C30.4364 22.7798 28.5868 23.4383 27.0492 24.5886C25.5116 25.739 24.3577 27.3274 23.7392 29.1453C26.1784 29.0716 28.4407 30.388 29.1118 32.4585C29.2267 32.7894 29.2853 33.1371 29.2852 33.4874C29.2852 35.6335 27.2275 37.0734 25.1091 37.0734C24.7348 37.0734 24.3679 37.031 24.0176 36.9499ZM32.6334 43.8584C33.2701 47.8221 35.1194 51.4911 37.9268 54.3607C40.7343 57.2302 44.362 59.1593 48.3108 59.8825L48.1744 59.2132V59.3183L44.922 43.4639C44.5294 42.154 43.724 41.006 42.6259 40.191C41.5279 39.376 40.1959 38.9376 38.8284 38.9412C35.8342 38.9412 33.2972 41.0062 32.6334 43.8584ZM40.5044 73.3843V72.4624H38.1259C37.4696 72.4624 36.8187 72.4347 36.1771 72.3813L35.895 73.3843H40.5044ZM27.3584 33.0319C27.0044 31.922 25.6235 30.9264 23.776 30.9872C21.9065 31.0518 20.6029 32.2557 20.4757 33.4726C20.402 34.2507 20.767 35.0269 21.4953 35.58C21.5506 35.2057 21.7221 34.8683 21.9655 34.6028L22.6016 33.9059L23.2837 34.5567C23.6949 34.9494 24.3439 35.2297 25.1091 35.2297C26.5748 35.2297 27.4414 34.2857 27.4414 33.4874C27.4414 33.341 27.4164 33.1957 27.3677 33.0578L27.3621 33.0449L27.3584 33.0319Z" fill="black"/>
</g>
</g>
<defs>
<clipPath id="clip0_58_4">
<rect width="59" height="59" fill="white" transform="translate(12 19)"/>
</clipPath>
</defs>
</svg>
